<svg xmlns="http://www.w3.org/2000/svg" viewBox="0 0 126.8 250.9" width="126.8" height="250.9"><path fill="#b4fff4" d="M115.9 186l-18.5-30.6c3.4-11.7 6.1-25 6.1-38 0-1.7 0-3.4-.1-5.1-1.9-34-15.1-46.3-24.9-56.1-4.7-4.7-8.2-8.7-10.7-14.4 0-.1-.1-.2-.1-.3 1.5-.2 2.9-.7 4.2-1.4 1.8-1.1 2.8-3.1 2.7-5.2l-.6-1.2c-.8-.8-3.1-1.3-7-1.4-.3-2.2-.3-4.4.1-6.6.1-1.2.1-1.2 1.8-1.4h.3c.9 0 1.6-.5 2-1.3.7-1.3-.2-2.8-.7-3.7l-.1-.3-.2-.6c-2.6-6.6-4-11.1-4-13.7S65.4.5 64.8.2c-.5-.3-1.1-.3-1.6 0-.3.2-1.4.8-1.4 4.5 0 1.7-.7 5.5-4 13.8l-.2.4-.2.3c-.6.8-.9 1.8-1 2.7 0 .3.1.7.2 1 .4.8 1.2 1.3 2 1.3h.3c1.7.2 1.7.2 1.8 1.4.2 1.3.3 2.7.3 4 0 .8-.1 1.7-.2 2.5-3.8.2-6.2.6-7 1.4l-.5 1.2c-.1 2.1 1 4.1 2.7 5.2 1.3.8 2.7 1.2 4.2 1.4 0 .1-.1.2-.1.3-2.4 5.8-6.6 9.8-11.2 14.5-9.8 9.8-23 22-24.9 56-.1 1.7-.1 3.3-.1 5.1 0 13 2.7 26.1 6.1 38l-18.5 30.6-11.5 65h12.7l11.8-41.3 19.8-16.6.7.3 2.2.7c.3 2 .7 4.3 1 5.6s.7 3.5 10 4.2v47.2h10.4v-47.2c9.8-.6 10.2-3.1 10.4-4.2s.6-3.5 1-5.6l2.2-.7.4-.2 19.7 16.5 11.8 41.3h12.7z"/></svg>